<svg width="1017" height="201" viewBox="0 0 1017 201" fill="none" xmlns="http://www.w3.org/2000/svg">
<path d="M0.499023 40.5117C0.499023 18.4203 18.4076 0.511719 40.499 0.511719H160.499C182.59 0.511719 200.499 18.4203 200.499 40.5117V160.512C200.499 182.603 182.59 200.512 160.499 200.512H40.499C18.4076 200.512 0.499023 182.603 0.499023 160.512V40.5117Z" fill="black"/>
<path d="M59.1675 38.515C59.1675 30.5989 65.5847 24.1816 73.5008 24.1816L127.167 24.1816C135.084 24.1816 141.501 30.5989 141.501 38.515L59.1675 38.515Z" fill="#A3B5D4"/>
<path d="M39.5005 53.5137C39.5005 45.2294 46.2162 38.5137 54.5005 38.5137L146.167 38.5137C154.451 38.5137 161.167 45.2294 161.167 53.5137L39.5005 53.5137Z" fill="#DBE2EE"/>
<path d="M21.8335 70.6426C21.8335 61.1825 28.9969 53.5137 37.8335 53.5137L162.834 53.5137C171.67 53.5137 178.834 61.1825 178.834 70.6425V105.257L21.8335 105.257L21.8335 70.6426Z" fill="#F8FAFB"/>
<path d="M82.9936 90.9965C86.9381 97.748 94.1698 101.898 101.989 101.898H178.499C190.649 101.898 200.499 111.748 200.499 123.898V160.51C200.499 182.602 182.59 200.51 160.499 200.51H40.499C18.4077 200.51 0.499056 182.602 0.499023 160.51V94.2832C0.499023 83.2375 9.45333 74.2832 20.499 74.2832H60.6027C68.422 74.2832 75.6537 78.4336 79.5982 85.1851L82.9936 90.9965Z" fill="#4C6DFE"/>
<path fill-rule="evenodd" clip-rule="evenodd" d="M44.3789 114.514C48.5051 114.594 52.4563 116.196 55.4736 119.012C58.3701 121.624 60.577 124.911 61.8981 128.581C63.297 132.314 63.5269 136.384 62.5576 140.251C61.4919 143.963 59.5781 147.375 56.9671 150.22C54.7543 152.603 52.2045 154.646 49.4017 156.285C54.2681 160.204 59.5882 163.527 65.249 166.18C77.4693 172.02 90.9679 174.672 104.489 173.891C117.96 173.026 130.12 168.669 141.398 161.248C152.649 153.931 161.882 143.906 168.252 132.092C167.788 132.214 167.289 132.363 166.757 132.539C165.672 132.898 162.295 134.316 161.317 134.817C159.138 135.946 157.656 136.812 155.715 138.095C154.329 139.013 154.052 139.171 152.986 139.602C151.955 140.02 151.731 140.075 151.229 140.037C150.844 139.993 150.481 139.833 150.19 139.578C149.898 139.323 149.691 138.985 149.596 138.61C149.465 137.975 149.623 137.263 150.091 136.385C151.288 134.143 153.519 131.532 156.183 129.269C158.975 126.881 162.176 125.018 165.632 123.77C167.595 123.047 169.633 122.548 171.708 122.283C175.101 121.833 177.373 122.099 178.527 123.088C179.413 123.849 179.993 124.749 180.665 126.42C181.799 129.297 182.461 132.339 182.626 135.428C182.943 140.052 182.119 144.682 180.228 148.913C178.855 152.095 177.755 153.931 176.645 154.883C176.297 155.182 175.878 155.387 175.428 155.477L175.424 155.478C174.847 155.486 174.288 155.285 173.849 154.911C173.223 154.321 173.07 153.645 173.177 151.964C173.25 150.959 173.38 149.959 173.566 148.969C174.151 145.303 174.345 140.649 174.047 137.496C174.005 137.041 173.957 136.618 173.903 136.224C166.896 148.604 156.952 159.078 144.94 166.718C132.662 174.601 119.404 179.161 104.836 179.952C90.3232 180.634 75.8727 177.647 62.8184 171.268C56.3049 168.127 50.2238 164.158 44.7262 159.459C44.5145 159.264 44.3012 159.069 44.0872 158.875C38.7436 161.09 33.0557 162.396 27.2594 162.724C20.1404 163.181 12.9928 162.878 5.93783 161.821C4.11545 161.569 2.30316 161.282 0.499023 160.97V157.068C2.47137 157.397 4.44585 157.694 6.42415 157.948C13.2041 158.904 20.0675 159.125 26.8949 158.608C31.587 158.297 36.196 157.294 40.5762 155.643C39.3317 154.435 38.1498 153.133 37 151.783C34.54 148.936 32.5152 145.741 30.9922 142.3C27.8496 135.354 28.145 126.219 33.4232 119.863C34.7484 118.225 36.4159 116.898 38.3086 115.974C40.2012 115.05 42.2732 114.551 44.3789 114.514ZM44.431 119.394C43.0376 119.441 41.6715 119.793 40.4294 120.426C39.1873 121.059 38.0994 121.958 37.2428 123.058C35.3872 125.42 34.2967 128.292 34.1175 131.29C33.9086 134.368 34.4758 137.449 35.7669 140.251C37.9249 145.155 41.6717 149.426 45.8841 153.264C45.9206 153.245 45.9574 153.226 45.9938 153.207C48.8563 151.664 51.4389 149.65 53.6335 147.25C55.7393 144.911 57.2779 142.118 58.1302 139.088C59.6233 133.339 56.8802 126.618 52.2966 122.589C50.15 120.604 47.3538 119.468 44.431 119.394Z" fill="white"/>
<path d="M280.499 146.185V35.7556H305.484L310.283 79.2371L316.458 132.726H319.563L325.217 79.2371L330.537 35.7556H355.522V146.185H340.545V113.125L343.375 49.0071H341.458L332.6 114.022L328.138 145.978H307.814L303.413 114.022L294.494 49.0071H292.784L295.407 113.125V146.185H280.499Z" fill="black"/>
<path d="M373.841 172.002C372.46 172.002 371.059 172.087 369.078 172.032C367.223 171.982 309.638 171.71 308.212 171.48V160.23C309.408 160.322 366.985 160.414 368.871 160.506C370.868 160.539 372.337 160.472 373.745 160.424C377.466 160.297 379.73 159.739 381.019 158.543C382.353 157.393 383.204 155.368 383.572 152.469C383.94 149.571 382.557 143.275 382.557 143.275L365.031 60.6061H380.215L386.355 99.1168L390.268 127.929L394.028 99.8074L397.668 60.6061H412.783L398.48 151.365C397.79 156.242 396.571 160.199 394.822 163.236C393.12 166.273 390.589 168.482 387.23 169.862C383.871 171.288 379.408 172.002 373.841 172.002Z" fill="black"/>
<path d="M463.376 144.601C455.001 144.601 449.02 142.83 445.431 139.287C441.888 135.744 440.047 129.877 439.909 121.687C439.817 116.534 439.748 111.127 439.702 105.468C439.656 99.8084 439.633 94.0569 439.633 88.2134C439.633 82.3699 439.656 76.6183 439.702 70.9588C439.748 65.2533 439.817 59.8009 439.909 54.6015C440.001 47.4236 441.888 41.8562 445.569 37.8991C449.25 33.8961 455.162 31.8945 463.307 31.8945C471.405 31.8945 477.271 33.666 480.906 37.2089C484.541 40.7059 486.497 46.5494 486.773 54.7396C486.819 56.35 486.842 58.2825 486.842 60.5371C486.842 62.7457 486.819 64.9543 486.773 67.1628C486.727 69.3254 486.681 71.2349 486.635 72.8913H471.727C471.773 70.8668 471.796 68.6352 471.796 66.1966C471.842 63.7579 471.865 61.3193 471.865 58.8807C471.865 56.396 471.842 54.1414 471.796 52.1169C471.75 49.4021 471.014 47.4006 469.587 46.1123C468.207 44.8239 466.113 44.1798 463.307 44.1798C460.5 44.1798 458.406 44.8239 457.026 46.1123C455.646 47.4006 454.909 49.4021 454.817 52.1169C454.633 57.9604 454.495 63.919 454.403 69.9926C454.357 76.0202 454.334 82.0938 454.334 88.2134C454.334 94.333 454.357 100.43 454.403 106.503C454.495 112.577 454.633 118.512 454.817 124.31C454.909 127.025 455.646 129.049 457.026 130.384C458.452 131.672 460.569 132.316 463.376 132.316C466.366 132.316 468.598 131.672 470.07 130.384C471.543 129.049 472.302 127.025 472.348 124.31C472.394 122.239 472.417 119.939 472.417 117.408C472.463 114.831 472.463 112.278 472.417 109.747C472.371 107.216 472.325 104.916 472.279 102.845H487.256C487.348 105.882 487.394 109.034 487.394 112.301C487.44 115.522 487.417 118.65 487.325 121.687C487.049 129.877 485.047 135.744 481.32 139.287C477.639 142.83 471.658 144.601 463.376 144.601Z" fill="black"/>
<path d="M512.851 144.394C507.56 144.394 503.648 143.014 501.118 140.253C498.633 137.446 497.138 132.914 496.632 126.657C496.586 125.644 496.54 124.54 496.494 123.344C496.494 122.147 496.517 121.066 496.563 120.1C496.839 116.603 497.552 113.543 498.702 110.92C499.898 108.298 501.739 105.951 504.224 103.881C506.708 101.81 510.044 99.8315 514.231 97.945C516.44 96.9327 518.648 96.0125 520.857 95.1842C523.112 94.31 525.389 93.5048 527.69 92.7686V78.6199C527.69 75.9972 527.184 74.0417 526.171 72.7533C525.159 71.465 523.227 70.8208 520.374 70.8208C517.935 70.8208 516.164 71.373 515.06 72.4772C514.001 73.5355 513.403 75.422 513.265 78.1367C513.219 79.011 513.173 80.2303 513.127 81.7947C513.127 83.3591 513.127 84.9695 513.127 86.626C513.173 88.2364 513.219 89.5707 513.265 90.629H498.771C498.725 89.4787 498.679 87.7993 498.633 85.5907C498.587 83.3821 498.587 81.4266 498.633 79.7241C498.817 74.9849 499.645 71.1199 501.118 68.1291C502.59 65.1383 504.914 62.9527 508.089 61.5724C511.264 60.146 515.497 59.4328 520.788 59.4328C526.309 59.4328 530.635 60.215 533.763 61.7794C536.938 63.2978 539.193 65.7135 540.527 69.0263C541.862 72.3392 542.529 76.6643 542.529 82.0018L542.46 143.428H527.552V135.215H525.481C524.147 138.298 522.536 140.598 520.65 142.117C518.809 143.635 516.21 144.394 512.851 144.394ZM518.717 133.489C520.788 133.489 522.559 132.891 524.032 131.695C525.55 130.499 526.747 128.842 527.621 126.726V103.121C526.01 103.627 524.4 104.226 522.79 104.916C521.179 105.56 519.546 106.434 517.889 107.538C515.359 109.057 513.656 110.874 512.782 112.991C511.954 115.061 511.471 117.431 511.333 120.1C511.287 120.974 511.264 121.871 511.264 122.792C511.264 123.712 511.287 124.632 511.333 125.552C511.563 128.129 512.299 130.107 513.541 131.488C514.829 132.822 516.555 133.489 518.717 133.489Z" fill="black"/>
<path d="M555.384 143.428V60.6061H570.292V69.7165H573.053C573.651 66.1736 574.848 63.7119 576.642 62.3316C578.483 60.9512 580.898 60.261 583.889 60.261C584.855 60.261 585.799 60.284 586.719 60.33C587.685 60.376 588.444 60.4221 588.996 60.4681V72.0631H584.027C579.472 72.0631 576.182 72.8223 574.157 74.3407C572.179 75.8591 570.891 78.1137 570.292 81.1045V143.428H555.384Z" fill="black"/>
<path d="M616.49 144.601C608.668 144.601 602.986 142.991 599.443 139.77C595.946 136.549 593.991 131.258 593.576 123.896C593.484 121.273 593.415 118.075 593.369 114.302C593.323 110.483 593.3 106.503 593.3 102.362C593.3 98.175 593.323 94.149 593.369 90.2839C593.415 86.4189 593.484 83.106 593.576 80.3453C594.083 72.8453 596.084 67.4849 599.581 64.2641C603.078 61.0432 608.668 59.4328 616.352 59.4328C623.898 59.4328 629.374 61.0202 632.779 64.1951C636.23 67.3239 638.139 72.5002 638.507 79.7241C638.553 80.9665 638.576 82.922 638.576 85.5907C638.622 88.2134 638.622 91.2272 638.576 94.6321C638.576 97.991 638.507 101.35 638.369 104.709H608.277C608.277 108.068 608.3 111.473 608.346 114.923C608.438 118.328 608.507 121.825 608.553 125.414C608.645 128.313 609.289 130.338 610.486 131.488C611.728 132.638 613.707 133.213 616.421 133.213C618.998 133.213 620.839 132.638 621.943 131.488C623.047 130.338 623.668 128.313 623.806 125.414C623.898 124.034 623.944 122.285 623.944 120.169C623.944 118.052 623.898 115.706 623.806 113.129H638.369C638.461 114.371 638.53 116.074 638.576 118.236C638.622 120.353 638.599 122.239 638.507 123.896C638.139 131.258 636.276 136.549 632.917 139.77C629.604 142.991 624.128 144.601 616.49 144.601ZM608.277 94.0109H623.944C623.99 91.7563 624.013 89.5477 624.013 87.3852C624.013 85.2226 623.99 83.3361 623.944 81.7257C623.898 80.0692 623.852 78.8729 623.806 78.1367C623.668 75.514 623.024 73.6505 621.874 72.5463C620.769 71.396 618.929 70.8208 616.352 70.8208C613.638 70.8208 611.682 71.396 610.486 72.5463C609.289 73.6505 608.645 75.514 608.553 78.1367C608.507 80.9435 608.461 83.6582 608.415 86.2809C608.369 88.9036 608.323 91.4803 608.277 94.0109Z" fill="black"/>
<path d="M671.759 144.601C663.937 144.601 658.254 142.991 654.711 139.77C651.214 136.549 649.259 131.258 648.845 123.896C648.753 121.273 648.684 118.075 648.638 114.302C648.592 110.483 648.569 106.503 648.569 102.362C648.569 98.175 648.592 94.149 648.638 90.2839C648.684 86.4189 648.753 83.106 648.845 80.3453C649.351 72.8453 651.352 67.4849 654.849 64.2641C658.346 61.0432 663.937 59.4328 671.621 59.4328C679.167 59.4328 684.642 61.0202 688.047 64.1951C691.498 67.3239 693.408 72.5002 693.776 79.7241C693.822 80.9665 693.845 82.922 693.845 85.5907C693.891 88.2134 693.891 91.2272 693.845 94.6321C693.845 97.991 693.776 101.35 693.638 104.709H663.546C663.546 108.068 663.569 111.473 663.615 114.923C663.707 118.328 663.776 121.825 663.822 125.414C663.914 128.313 664.558 130.338 665.754 131.488C666.997 132.638 668.975 133.213 671.69 133.213C674.266 133.213 676.107 132.638 677.211 131.488C678.316 130.338 678.937 128.313 679.075 125.414C679.167 124.034 679.213 122.285 679.213 120.169C679.213 118.052 679.167 115.706 679.075 113.129H693.638C693.73 114.371 693.799 116.074 693.845 118.236C693.891 120.353 693.868 122.239 693.776 123.896C693.408 131.258 691.544 136.549 688.185 139.77C684.872 142.991 679.397 144.601 671.759 144.601ZM663.546 94.0109H679.213C679.259 91.7563 679.282 89.5477 679.282 87.3852C679.282 85.2226 679.259 83.3361 679.213 81.7257C679.167 80.0692 679.121 78.8729 679.075 78.1367C678.937 75.514 678.293 73.6505 677.142 72.5463C676.038 71.396 674.197 70.8208 671.621 70.8208C668.906 70.8208 666.951 71.396 665.754 72.5463C664.558 73.6505 663.914 75.514 663.822 78.1367C663.776 80.9435 663.73 83.6582 663.684 86.2809C663.638 88.9036 663.592 91.4803 663.546 94.0109Z" fill="black"/>
<path d="M705.149 143.428V60.6061H720.056V69.7165H722.817C723.415 66.1736 724.612 63.7119 726.406 62.3316C728.247 60.9512 730.662 60.261 733.653 60.261C734.619 60.261 735.563 60.284 736.483 60.33C737.449 60.376 738.208 60.4221 738.76 60.4681V72.0631H733.791C729.236 72.0631 725.946 72.8223 723.921 74.3407C721.943 75.8591 720.655 78.1137 720.056 81.1045V143.428H705.149Z" fill="black"/>
<path d="M756.06 143.428L742.188 32.9988H757.648L764.757 91.4573L766.758 130.176H770.554L772.556 91.4573L779.665 32.9988H795.194L781.321 143.428H756.06Z" fill="black"/>
<path d="M812.649 144.394C807.357 144.394 803.446 143.014 800.916 140.253C798.431 137.446 796.936 132.914 796.429 126.657C796.383 125.644 796.337 124.54 796.291 123.344C796.291 122.147 796.314 121.066 796.36 120.1C796.636 116.603 797.35 113.543 798.5 110.92C799.696 108.298 801.537 105.951 804.021 103.881C806.506 101.81 809.842 99.8315 814.029 97.945C816.238 96.9327 818.446 96.0125 820.655 95.1842C822.909 94.31 825.187 93.5048 827.488 92.7686V78.6199C827.488 75.9972 826.982 74.0417 825.969 72.7533C824.957 71.465 823.024 70.8208 820.172 70.8208C817.733 70.8208 815.962 71.373 814.857 72.4772C813.799 73.5355 813.201 75.422 813.063 78.1367C813.017 79.011 812.971 80.2303 812.925 81.7947C812.925 83.3591 812.925 84.9695 812.925 86.626C812.971 88.2364 813.017 89.5707 813.063 90.629H798.569C798.523 89.4787 798.477 87.7993 798.431 85.5907C798.385 83.3821 798.385 81.4266 798.431 79.7241C798.615 74.9849 799.443 71.1199 800.916 68.1291C802.388 65.1383 804.712 62.9527 807.886 61.5724C811.061 60.146 815.294 59.4328 820.586 59.4328C826.107 59.4328 830.432 60.215 833.561 61.7794C836.736 63.2978 838.991 65.7135 840.325 69.0263C841.659 72.3392 842.327 76.6643 842.327 82.0018L842.258 143.428H827.35V135.215H825.279C823.945 138.298 822.334 140.598 820.448 142.117C818.607 143.635 816.008 144.394 812.649 144.394ZM818.515 133.489C820.586 133.489 822.357 132.891 823.83 131.695C825.348 130.499 826.544 128.842 827.419 126.726V103.121C825.808 103.627 824.198 104.226 822.587 104.916C820.977 105.56 819.344 106.434 817.687 107.538C815.156 109.057 813.454 110.874 812.58 112.991C811.752 115.061 811.268 117.431 811.13 120.1C811.084 120.974 811.061 121.871 811.061 122.792C811.061 123.712 811.084 124.632 811.13 125.552C811.36 128.129 812.097 130.107 813.339 131.488C814.627 132.822 816.353 133.489 818.515 133.489Z" fill="black"/>
<path d="M870.711 144.601C865.696 144.601 861.762 143.06 858.909 139.977C856.057 136.894 854.63 131.81 854.63 124.724V60.6061H869.538V125.966C869.538 128.589 870.067 130.499 871.125 131.695C872.23 132.891 873.932 133.489 876.233 133.489C878.395 133.489 880.489 132.868 882.513 131.626C884.584 130.338 886.033 128.566 886.862 126.311V60.6061H901.77V143.428H886.862V135.284H884.653C882.905 138.505 880.903 140.874 878.648 142.393C876.44 143.865 873.794 144.601 870.711 144.601Z" fill="black"/>
<path d="M915.034 143.428V60.0076H929.942V143.428H915.034Z" fill="black"/>
<path d="M969.227 144.601C960.761 144.601 954.757 142.991 951.214 139.77C947.717 136.549 945.968 131.258 945.968 123.896V89.7109H939.205V78.2539H946.106V60.1588H961.083V78.2539H974.266V89.7109H960.876V125.552C960.876 128.451 961.382 130.476 962.395 131.626C963.453 132.73 965.754 133.282 969.297 133.282C970.493 133.282 971.551 133.259 972.471 133.213C973.392 133.167 974.45 133.098 975.646 133.006V143.911C974.68 144.141 973.645 144.302 972.54 144.394C971.482 144.532 970.378 144.601 969.227 144.601Z" fill="black"/>
<path d="M1003.73 85.1508C1001.96 85.1508 1000.29 84.8202 998.709 84.1589C997.163 83.4662 995.807 82.5373 994.64 81.3722C993.472 80.2071 992.558 78.8531 991.895 77.3102C991.233 75.7673 990.901 74.1141 990.901 72.3508C990.901 69.9892 991.469 67.848 992.605 65.9272C993.772 63.9749 995.318 62.432 997.242 61.2984C999.198 60.1333 1001.36 59.5508 1003.73 59.5508C1005.49 59.5508 1007.15 59.8814 1008.69 60.5427C1010.24 61.2039 1011.6 62.1171 1012.76 63.2821C1013.96 64.4472 1014.88 65.817 1015.51 67.3914C1016.17 68.9343 1016.5 70.5874 1016.5 72.3508C1016.5 74.1141 1016.17 75.7673 1015.51 77.3102C1014.88 78.8531 1013.96 80.2071 1012.76 81.3722C1011.6 82.5373 1010.24 83.4662 1008.69 84.1589C1007.15 84.8202 1005.49 85.1508 1003.73 85.1508ZM1003.73 83.4976C1005.81 83.4976 1007.68 82.9938 1009.36 81.9862C1011.03 80.9471 1012.35 79.5931 1013.33 77.9242C1014.34 76.2238 1014.85 74.366 1014.85 72.3508C1014.85 70.3355 1014.34 68.4935 1013.33 66.8246C1012.35 65.1242 1011.03 63.7702 1009.36 62.7626C1007.68 61.7235 1005.81 61.2039 1003.73 61.2039C1001.64 61.2039 999.766 61.7235 998.094 62.7626C996.422 63.7702 995.081 65.1242 994.072 66.8246C993.094 68.4935 992.605 70.3355 992.605 72.3508C992.605 74.366 993.094 76.2238 994.072 77.9242C995.081 79.5931 996.422 80.9471 998.094 81.9862C999.766 82.9938 1001.64 83.4976 1003.73 83.4976ZM998.756 79.6246V65.1242H1003.49C1005.19 65.1242 1006.53 65.5178 1007.51 66.305C1008.49 67.0607 1008.98 68.0999 1008.98 69.4224C1008.98 71.5006 1007.92 72.8074 1005.81 73.3427L1009.31 79.6246H1007.32L1004.15 73.6733H1000.51V79.6246H998.756ZM1000.51 72.0674H1003.87C1004.94 72.0674 1005.79 71.8312 1006.42 71.3589C1007.05 70.8551 1007.37 70.1781 1007.37 69.3279C1007.37 68.5092 1007.05 67.8637 1006.42 67.3914C1005.79 66.919 1004.94 66.6829 1003.87 66.6829H1000.51V72.0674Z" fill="black"/>
<circle cx="389.503" cy="40.9727" r="12" fill="#4C6DFE"/>
</svg>
